# xmcd
#
# Track frame offsets: 
#        150
#        20140
#        40702
#        63302
#        75612
#        94447
#        114055
#        137362
#        155642
#        193237
#        207705
#        226165
#        255315
#        276365
#
# Disc length: 3944 seconds
#
# Revision: 0
# Processed by: cddbd v1.4PL0 Copyright (c) Steve Scherf et al.
# Submitted via: ExactAudioCopy v0.90b3
#
DISCID=bf0f660e
DTITLE=Mike Milligan and Steam Shovel - All My Life
DYEAR=1998
DGENRE=Blues
TTITLE0=Fear Running Scared
TTITLE1=Gone to Austin
TTITLE2=Frustrated
TTITLE3=Soul of Your Own
TTITLE4=Trouble
TTITLE5=Down Again
TTITLE6=Hands Tied
TTITLE7=All My Life
TTITLE8=Bills In My Kitchen
TTITLE9=Once Around the Moon
TTITLE10=Blues Late at Night
TTITLE11=Let Her Cry
TTITLE12=Home to Kokomo
TTITLE13=Slow Down
EXTD=
EXTT0=
EXTT1=
EXTT2=
EXTT3=
EXTT4=
EXTT5=
EXTT6=
EXTT7=
EXTT8=
EXTT9=
EXTT10=
EXTT11=
EXTT12=
EXTT13=
PLAYORDER=
